<?xml version="1.0" standalone="no"?>
<!DOCTYPE svg PUBLIC "-//W3C//DTD SVG 20010904//EN"
 "http://www.w3.org/TR/2001/REC-SVG-20010904/DTD/svg10.dtd">
<svg version="1.0" xmlns="http://www.w3.org/2000/svg"
 width="500.000000pt" height="500.000000pt" viewBox="0 0 500.000000 500.000000"
 preserveAspectRatio="xMidYMid meet">

<g transform="translate(0.000000,500.000000) scale(0.100000,-0.100000)"
fill="#000000" stroke="none">
<path d="M1770 3061 c-5 -11 -10 -74 -10 -140 0 -99 -3 -122 -16 -129 -18 -10
-5 -43 147 -389 l84 -192 45 -1 45 0 44 98 c24 53 63 142 86 197 23 55 61 140
84 188 22 49 41 91 41 93 0 3 -27 4 -60 2 l-61 -3 -33 -80 c-62 -150 -137
-320 -146 -328 -6 -7 -50 88 -50 108 0 2 -29 75 -65 160 -63 152 -65 159 -65
245 0 50 4 90 10 92 5 2 284 2 620 0 l610 -2 0 -385 0 -385 55 0 55 0 0 155
c0 188 10 225 71 249 47 19 65 20 108 5 54 -19 61 -47 61 -239 l0 -170 55 0
55 0 0 185 c0 144 -3 194 -15 222 -33 78 -78 105 -175 105 -70 0 -99 -10 -137
-45 l-23 -20 0 195 c0 176 -2 196 -18 211 -17 16 -80 17 -705 17 -668 0 -687
-1 -697 -19z"/>
<path d="M2630 2861 c-101 -33 -184 -104 -223 -190 -30 -66 -30 -207 0 -273
91 -200 356 -262 535 -125 23 18 43 37 44 42 2 6 -16 25 -38 43 l-41 33 -26
-24 c-59 -56 -145 -78 -221 -57 -67 18 -144 99 -158 166 -20 91 5 169 75 236
47 45 79 58 148 58 68 0 94 -10 144 -55 l40 -37 41 33 c22 18 40 35 40 39 0
14 -58 59 -110 86 -45 22 -71 28 -140 30 -47 2 -96 0 -110 -5z"/>
<path d="M520 2535 l0 -327 173 4 c165 3 174 4 229 31 107 53 169 146 176 268
9 145 -49 256 -164 314 -58 29 -62 30 -236 33 l-178 4 0 -327z m350 203 c128
-65 156 -258 54 -361 -48 -47 -89 -60 -199 -61 l-90 -1 -3 223 -2 222 98 0
c82 0 105 -4 142 -22z"/>
<path d="M4258 2788 l-3 -63 -52 -3 -53 -3 0 -50 0 -49 54 0 54 0 4 -163 c2
-135 6 -168 21 -190 24 -37 70 -58 139 -64 l58 -6 0 57 0 56 -38 0 c-72 0 -77
10 -80 169 l-4 141 61 0 61 0 0 50 0 50 -60 0 -60 0 0 65 0 65 -50 0 -49 0 -3
-62z"/>
<path d="M1383 2720 c-57 -12 -91 -31 -135 -77 -50 -52 -68 -99 -68 -180 0
-122 63 -213 174 -249 93 -31 215 -4 276 61 l25 26 -25 20 c-40 32 -60 41 -60
29 0 -6 -21 -20 -46 -32 -63 -27 -143 -22 -180 13 -23 22 -54 69 -54 84 0 3
92 5 205 5 l205 0 0 58 c-1 130 -94 231 -225 245 -27 3 -69 2 -92 -3z m129
-104 c43 -18 56 -34 64 -74 l7 -32 -147 0 c-80 0 -146 4 -146 9 0 4 10 23 23
42 42 63 125 86 199 55z"/>
<path d="M3805 2720 c-50 -7 -135 -44 -135 -58 0 -4 10 -20 23 -35 l22 -28 69
16 c112 26 196 -5 196 -71 0 -20 -5 -22 -112 -26 -174 -7 -228 -45 -228 -160
0 -99 53 -147 171 -156 64 -4 85 1 172 46 4 2 7 -6 7 -17 0 -18 6 -21 50 -21
l50 0 0 173 c0 94 -5 189 -11 210 -28 100 -131 149 -274 127z m179 -323 c-1
-43 -25 -74 -71 -93 -80 -34 -163 -3 -163 61 0 55 44 75 165 72 l70 -2 -1 -38z"/>
<path d="M1760 2132 c0 -157 -5 -152 168 -152 l132 0 0 -120 0 -119 43 22 c23
13 115 66 204 120 160 97 161 97 227 97 l66 0 0 50 0 50 -78 0 c-76 0 -82 -2
-160 -47 -45 -27 -106 -62 -137 -80 l-55 -31 0 79 0 79 -160 0 -160 0 0 85 0
85 -45 0 -45 0 0 -118z"/>
<path d="M2710 2030 l0 -50 224 0 c221 0 225 0 240 22 9 12 16 35 16 50 l0 28
-240 0 -240 0 0 -50z"/>
</g>
</svg>
